<?xml version="1.0" encoding="utf-8"?>
<!-- Generator: Adobe Illustrator 16.0.2, SVG Export Plug-In . SVG Version: 6.00 Build 0)  -->
<!DOCTYPE svg PUBLIC "-//W3C//DTD SVG 1.1//EN" "http://www.w3.org/Graphics/SVG/1.1/DTD/svg11.dtd">
<svg version="1.1" id="Layer_1" xmlns="http://www.w3.org/2000/svg" xmlns:xlink="http://www.w3.org/1999/xlink" x="0px" y="0px"
	 width="150px" height="150px" viewBox="0 0 150 150" enable-background="new 0 0 150 150" xml:space="preserve">
<g>
	<path fill="#FFFFFF" d="M117.979,86.683c0,9.083-0.998,17.022-2.988,23.818c-1.992,6.798-4.834,12.467-8.525,17.007
		c-3.691,4.541-8.189,7.954-13.492,10.239s-11.265,3.428-17.885,3.428c-6.446,0-12.305-1.143-17.578-3.428
		s-9.815-5.698-13.623-10.239c-3.81-4.54-6.754-10.209-8.833-17.007c-2.081-6.796-3.12-14.735-3.12-23.818V64.446
		c0-9.022,1.04-16.948,3.12-23.774c2.079-6.825,4.995-12.538,8.745-17.139c3.749-4.599,8.262-8.056,13.535-10.371
		c5.273-2.314,11.132-3.472,17.578-3.472c6.621,0,12.583,1.158,17.885,3.472c5.303,2.315,9.83,5.772,13.58,10.371
		c3.748,4.601,6.621,10.313,8.613,17.139c1.99,6.827,2.988,14.752,2.988,23.774V86.683z M101.895,64.271
		c0-7.031-0.586-13.081-1.758-18.149c-1.174-5.067-2.9-9.229-5.186-12.48s-5.098-5.639-8.438-7.163
		c-3.34-1.523-7.207-2.285-11.602-2.285c-4.161,0-7.896,0.762-11.206,2.285c-3.311,1.524-6.139,3.911-8.481,7.163
		c-2.344,3.252-4.146,7.413-5.405,12.48c-1.261,5.069-1.89,11.118-1.89,18.149v22.412c0,7.091,0.644,13.17,1.934,18.237
		c1.288,5.068,3.105,9.229,5.449,12.48c2.343,3.252,5.186,5.641,8.525,7.163c3.34,1.524,7.089,2.285,11.25,2.285
		c4.395,0,8.262-0.761,11.602-2.285c3.34-1.522,6.137-3.911,8.393-7.163s3.955-7.412,5.098-12.48
		c1.143-5.067,1.715-11.146,1.715-18.237V64.271z"/>
</g>
</svg>
