<svg version="1.1" xmlns="http://www.w3.org/2000/svg" xmlns:xlink="http://www.w3.org/1999/xlink" width="838" height="992" enable-background="new 0 0 1000 1000" xml:space="preserve" style=""><rect id="backgroundrect" width="100%" height="100%" x="0" y="0" fill="none" stroke="none" style="" class=""/>


<g class="currentLayer" style=""><title>Layer 1</title><g id="svg_1" class="">
	<g id="svg_2">
		<path display="none" fill-rule="evenodd" clip-rule="evenodd" fill="#FFFFFF" d="M640.7360229492188,992.2360143661499 c-148.77999877929688,0 -297.55999755859375,0 -446.3399963378906,0 c-0.020999999716877937,-0.34599998593330383 -0.041999999433755875,-0.6899999976158142 -0.06199999898672104,-1.0360000133514404 c5.170000076293945,-22.709999084472656 13.262999534606934,-44.29499816894531 24.965999603271484,-64.46800231933594 c23.652000427246094,-40.770999908447266 56.566001892089844,-71.72000122070312 99.00199890136719,-92.25399780273438 c42.59700012207031,-20.61199951171875 87.46700286865234,-27.054000854492188 134.23800659179688,-20.125 c24.823999404907227,3.677000045776367 48.415000915527344,11.342000007629395 70.62100219726562,23.0310001373291 c43.077999114990234,22.67799949645996 75.88200378417969,55.6609992980957 98.26899719238281,98.9020004272461 c8.854999542236328,17.104000091552734 15.406999588012695,35.08100128173828 19.385000228881836,53.959999084472656 C640.7870483398438,990.9100255966187 640.7610473632812,991.5729894638062 640.7360229492188,992.2360143661499 z" id="svg_3"/>
		<path fill-rule="evenodd" clip-rule="evenodd" fill="#B9B9B9" d="M640.7360229492188,992.2360143661499 c0.02500000037252903,-0.6629999876022339 0.052000001072883606,-1.3259999752044678 0.07800000160932541,-1.9889999628067017 c2.131999969482422,0.34599998593330383 4.263999938964844,0.9869999885559082 6.395999908447266,0.9919999837875366 c33.05699920654297,0.06800000369548798 66.11299896240234,0.05400000140070915 99.16999816894531,0.05900000035762787 c0.02800000086426735,0.31299999356269836 0.02500000037252903,0.6259999871253967 -0.00800000037997961,0.9380000233650208 C711.1600341796875,992.2360143661499 675.947021484375,992.2360143661499 640.7360229492188,992.2360143661499 z" id="svg_4"/>
		<path fill-rule="evenodd" clip-rule="evenodd" fill="#B9B9B9" d="M194.33399963378906,991.2000036239624 c0.019999999552965164,0.34599998593330383 0.04100000113248825,0.6899999976158142 0.06199999898672104,1.0360000133514404 c-35.21200180053711,0 -70.42400360107422,0 -105.63700103759766,0 c0.04100000113248825,-0.36800000071525574 0.08100000023841858,-0.7350000143051147 0.12200000137090683,-1.1039999723434448 C124.031005859375,991.1550207138062 159.1820068359375,991.1779699325562 194.33399963378906,991.2000036239624 z" id="svg_5"/>
		<path opacity="0.7" fill-rule="evenodd" clip-rule="evenodd" d="M194.33399963378906,991.2000036239624 c-35.1510009765625,-0.02199999988079071 -70.302001953125,-0.04500000178813934 -105.4530029296875,-0.06700000166893005 c-0.03200000151991844,-19.979000091552734 -0.09799999743700027,-39.95899963378906 -0.0860000029206276,-59.9379997253418 c0.013000000268220901,-23.78499984741211 -0.4729999899864197,-47.5880012512207 0.2639999985694885,-71.35199737548828 c1.4630000591278076,-47.255001068115234 12.782999992370605,-92.18199920654297 34.07899856567383,-134.45700073242188 c4.8429999351501465,-9.61299991607666 10.447999954223633,-18.8439998626709 15.739999771118164,-28.229999542236328 c0.7649999856948853,-1.3550000190734863 1.7430000305175781,-2.5910000801086426 2.7339999675750732,-4.044000148773193 c1.2239999771118164,0.5669999718666077 2.260999917984009,0.9190000295639038 3.1630001068115234,1.4850000143051147 c35.43600082397461,22.246000289916992 74.11100006103516,36.5 114.5510025024414,46.367000579833984 c35.512001037597656,8.664999961853027 71.5790023803711,13.677000045776367 107.9990005493164,16.45599937438965 c27.687000274658203,2.11299991607666 55.39500045776367,3.1710000038146973 83.1520004272461,2.2090001106262207 c38.61000061035156,-1.3380000591278076 76.8010025024414,-5.791999816894531 114.21499633789062,-15.803000450134277 c43.54600143432617,-11.651000022888184 83.68499755859375,-30.25200080871582 119.10099792480469,-58.470001220703125 c0.9679999947547913,-0.7710000276565552 2.0350000858306885,-1.4179999828338623 3.36299991607666,-2.3359999656677246 c1.2230000495910645,1.684999942779541 2.369999885559082,3.1679999828338623 3.4140000343322754,4.7220001220703125 c29.913000106811523,44.51499938964844 48.154998779296875,93.36199951171875 54.00600051879883,146.6999969482422 c1.2599999904632568,11.479999542236328 1.9559999704360962,23.07699966430664 2.0290000438690186,34.625 c0.2460000067949295,38.691001892089844 0.09799999743700027,77.38400268554688 0.07900000363588333,116.07599639892578 c-0.0010000000474974513,2.0510001182556152 -0.19699999690055847,4.103000164031982 -0.30399999022483826,6.1539998054504395 c-33.05699920654297,-0.004999999888241291 -66.11299896240234,0.009999999776482582 -99.16999816894531,-0.05900000035762787 c-2.132999897003174,-0.004999999888241291 -4.264999866485596,-0.6460000276565552 -6.395999908447266,-0.9919999837875366 c-3.9779999256134033,-18.878999710083008 -10.529000282287598,-36.85499954223633 -19.385000228881836,-53.959999084472656 c-22.386999130249023,-43.24100112915039 -55.189998626708984,-76.2249984741211 -98.26899719238281,-98.9020004272461 c-22.20599937438965,-11.689000129699707 -45.797000885009766,-19.354000091552734 -70.62100219726562,-23.0310001373291 c-46.770999908447266,-6.928999900817871 -91.64099884033203,-0.4869999885559082 -134.23800659179688,20.125 c-42.43600082397461,20.534000396728516 -75.3499984741211,51.481998443603516 -99.00199890136719,92.25399780273438 C207.5970001220703,946.9050207138062 199.50401306152344,968.4899816513062 194.33399963378906,991.2000036239624 z" id="svg_6"/>
		<path fill-rule="evenodd" clip-rule="evenodd" fill="#060606" d="M144.0550079345703,458.7019872665405 c-7.322000026702881,0.17100000381469727 -15.61299991607666,-0.8899999856948853 -23.75200080871582,-3.240999937057495 c-10.727999687194824,-3.0989999771118164 -18.356000900268555,-9.53499984741211 -22.54800033569336,-20.05699920654297 c-5.814000129699707,-14.597000122070312 -9.178999900817871,-29.652000427246094 -8.906999588012695,-45.40299987792969 c0.05700000002980232,-3.2939999103546143 0.45100000500679016,-6.697999954223633 1.3899999856948853,-9.840999603271484 c3.5439999103546143,-11.854999542236328 7.591000080108643,-23.57900047302246 13.821000099182129,-34.316001892089844 c3.075000047683716,-5.300000190734863 6.802000045776367,-10.32699966430664 10.857000350952148,-14.928999900817871 c6.250999927520752,-7.093999862670898 14.40999984741211,-11.38700008392334 23.61199951171875,-13.39799976348877 c26.83099937438965,-5.861000061035156 49.55799865722656,1.6100000143051147 67.97699737548828,21.797000885009766 c13.527000427246094,14.826000213623047 20.437000274658203,32.58700180053711 21.899999618530273,52.53499984741211 c0.6019999980926514,8.211999893188477 -1.597000002861023,15.692000389099121 -5.895999908447266,22.611000061035156 c-8.288000106811523,13.338000297546387 -19.95599937438965,23.21500015258789 -32.6619987487793,32.09199905395508 C176.3780059814453,455.9600133895874 161.2030029296875,458.7879858016968 144.0550079345703,458.7019872665405 zM139.0780029296875,380.9070043563843 c-0.29600000381469727,10.897000312805176 8.095000267028809,19.76799964904785 19.05500030517578,20.14299964904785 c10.656999588012695,0.36500000953674316 19.82900047302246,-8.442999839782715 20.02199935913086,-19.229000091552734 c0.19200000166893005,-10.701000213623047 -8.218999862670898,-19.510000228881836 -18.864999771118164,-19.756000518798828 C148.16600036621094,361.8080053329468 139.37400817871094,370.0039892196655 139.0780029296875,380.9070043563843 z" id="svg_7"/>
		<path fill-rule="evenodd" clip-rule="evenodd" fill="#060606" d="M683.4450073242188,459.1429967880249 c-6.291999816894531,-0.6850000023841858 -12.619000434875488,-1.1449999809265137 -18.868000030517578,-2.109999895095825 c-8.906000137329102,-1.375 -16.976999282836914,-4.951000213623047 -24.45400047302246,-9.99899959564209 c-13.128999710083008,-8.862000465393066 -24.98200035095215,-18.9950008392334 -33.47700119018555,-32.60100173950195 c-4.140999794006348,-6.632999897003174 -6.2230000495910645,-13.793999671936035 -5.96999979019165,-21.66900062561035 c0.34299999475479126,-10.626999855041504 0.7670000195503235,-21.238000869750977 3.0139999389648438,-31.677000045776367 c1.715999960899353,-7.965000152587891 4.436999797821045,-15.541000366210938 8.947999954223633,-22.391000747680664 c5.223999977111816,-7.931000232696533 12.147000312805176,-13.753999710083008 21.202999114990234,-16.839000701904297 c16.14900016784668,-5.501999855041504 32.73400115966797,-7.423999786376953 49.685001373291016,-5.507999897003174 c13.814000129699707,1.562000036239624 24.54400062561035,8.402999877929688 31.56399917602539,20.360000610351562 c3.5929999351501465,6.117000102996826 6.551000118255615,12.678000450134277 9.128000259399414,19.29800033569336 c3.2730000019073486,8.40999984741211 6.145999908447266,17.003999710083008 8.649999618530273,25.674999237060547 c1.4390000104904175,4.980000019073486 2.24399995803833,10.241999626159668 2.572000026702881,15.425000190734863 c0.7450000047683716,11.77299976348877 -0.4650000035762787,23.386999130249023 -3.4509999752044678,34.86600112915039 c-3.2820000648498535,12.612000465393066 -11.232999801635742,20.176000595092773 -23.582000732421875,23.615999221801758 C700.2420043945312,457.86400508880615 691.9509887695312,458.8860082626343 683.4450073242188,459.1429967880249 zM687.6510009765625,381.8359899520874 c0.11699999868869781,-11.086999893188477 -8.274999618530273,-19.711999893188477 -19.2549991607666,-19.78700065612793 c-10.975000381469727,-0.07500000298023224 -19.819000244140625,8.538999557495117 -19.843000411987305,19.325000762939453 c-0.020999999716877937,10.567000389099121 8.58899974822998,19.413000106811523 19.155000686645508,19.677000045776367 C678.5950317382812,401.32298946380615 687.5360107421875,392.70799922943115 687.6510009765625,381.8359899520874 z" id="svg_8"/>
		<path opacity="0.9" fill-rule="evenodd" clip-rule="evenodd" fill="#060606" d="M67.0469970703125,131.21300411224365 c-1.6579999923706055,2.11299991607666 -3.5260000228881836,4.0970001220703125 -4.921999931335449,6.370999813079834 c-1.7740000486373901,2.8910000324249268 -4.177999973297119,3.371999979019165 -7.271999835968018,3.056999921798706 c-8.817999839782715,-0.8970000147819519 -17.106000900268555,-3.5 -24.60099983215332,-8.12600040435791 c-4.958000183105469,-3.061000108718872 -9.652999877929688,-6.633999824523926 -14.121000289916992,-10.388999938964844 c-8.20199966430664,-6.890999794006348 -13.062000274658203,-15.776000022888184 -14.54800033569336,-26.43899917602539 c-1.5829999446868896,-11.362000465393066 -1.5820000171661377,-22.732999801635742 -0.054999999701976776,-34.09199905395508 c1.1579999923706055,-8.61400032043457 4.84499979019165,-16.07699966430664 11.093000411987305,-22.09000015258789 c14.383000373840332,-13.843000411987305 31.37299919128418,-22.100000381469727 51.584999084472656,-21.613000869750977 c13.986000061035156,0.3370000123977661 27.160999298095703,4.360000133514404 38.560001373291016,12.946000099182129 c4.932000160217285,3.7139999866485596 9.755999565124512,7.576000213623047 14.545000076293945,11.472999572753906 c10.036999702453613,8.164999961853027 14.432000160217285,18.91900062561035 14.515999794006348,31.694000244140625 c0.01600000075995922,2.4769999980926514 -0.6039999723434448,4.109000205993652 -2.8459999561309814,5.414999961853027 c-4.232999801635742,2.4649999141693115 -8.288000106811523,5.236999988555908 -12.416000366210938,7.881999969482422 c-0.9039999842643738,-1.0399999618530273 -1.9839999675750732,-1.9769999980926514 -2.671999931335449,-3.1440000534057617 c-1.1230000257492065,-1.9019999504089355 -1.8930000066757202,-4.011000156402588 -2.9800000190734863,-5.938000202178955 c-8.633999824523926,-15.29699993133545 -20.792999267578125,-26.066999435424805 -38.33700180053711,-30.089000701904297 c-20.097999572753906,-4.607999801635742 -37.47700119018555,8.75100040435791 -38.07699966430664,29.354000091552734 c-0.4650000035762787,15.95300006866455 5.406000137329102,29.458999633789062 16.386999130249023,40.63100051879883 C55.714996337890625,123.02899837493896 61.62699890136719,126.87999629974365 67.0469970703125,131.21300411224365 z" id="svg_9"/>
		<path opacity="0.9" fill-rule="evenodd" clip-rule="evenodd" fill="#060606" d="M656.8460083007812,80.78500270843506 c-5.361999988555908,-2.7209999561309814 -10.708000183105469,-5.47599983215332 -16.099000930786133,-8.140000343322754 c-1.6330000162124634,-0.8069999814033508 -2.3389999866485596,-1.9869999885559082 -2.313999891281128,-3.757999897003174 c0.04500000178813934,-3.318000078201294 -0.29899999499320984,-6.678999900817871 0.11500000208616257,-9.946999549865723 c1.4470000267028809,-11.428000450134277 5.195000171661377,-22.18199920654297 10.267999649047852,-32.47800064086914 c2.2709999084472656,-4.609000205993652 5.442999839782715,-8.451000213623047 9.729000091552734,-11.468000411987305 c11.781999588012695,-8.293999671936035 24.586999893188477,-14.010000228881836 39.11000061035156,-14.487000465393066 c15.449000358581543,-0.5070000290870667 29.875,3.4489998817443848 42.45199966430664,12.678999900817871 c6.498000144958496,4.769000053405762 12.670000076293945,10.027000427246094 18.672000885009766,15.416999816894531 c5.60099983215332,5.03000020980835 8.819999694824219,11.598999977111816 9.902999877929688,19.041000366210938 c1.5880000591278076,10.913000106811523 1.7979999780654907,21.80699920654297 -1.8029999732971191,32.44300079345703 c-5.676000118255615,16.770000457763672 -17.31100082397461,28.128999710083008 -32.96900177001953,35.590999603271484 c-4.547999858856201,2.1670000553131104 -9.505000114440918,3.4670000076293945 -14.263999938964844,5.197000026702881 c-2.117000102996826,0.7699999809265137 -3.8949999809265137,0.5490000247955322 -5.677999973297119,-1.0360000133514404 c-3.071000099182129,-2.7279999256134033 -6.334000110626221,-5.239999771118164 -9.515999794006348,-7.8429999351501465 c2.01200008392334,-1.7630000114440918 3.9200000762939453,-3.6619999408721924 6.054999828338623,-5.260000228881836 c5.1529998779296875,-3.8589999675750732 9.123000144958496,-8.75 12.659000396728516,-14.038999557495117 c7.872000217437744,-11.77299976348877 11.104000091552734,-24.77199935913086 9.859999656677246,-38.82899856567383 c-1.9709999561309814,-22.270000457763672 -20.91699981689453,-34.16699981689453 -41.70199966430664,-24.69700050354004 c-20.145999908447266,9.178999900817871 -30.312000274658203,26.010000228881836 -33.529998779296875,47.4630012512207 C657.5850219726562,78.03500270843506 657.1669921875,79.40199947357178 656.8460083007812,80.78500270843506 z" id="svg_10"/>
		<path opacity="0.7" fill-rule="evenodd" clip-rule="evenodd" d="M656.8460083007812,80.78500270843506 c0.32100000977516174,-1.3819999694824219 0.7390000224113464,-2.75 0.9490000009536743,-4.14900016784668 c3.2190001010894775,-21.452999114990234 13.383999824523926,-38.28499984741211 33.529998779296875,-47.4630012512207 c20.78499984741211,-9.470000267028809 39.73099899291992,2.427000045776367 41.70199966430664,24.69700050354004 c1.2430000305175781,14.055999755859375 -1.9880000352859497,27.05500030517578 -9.859999656677246,38.82899856567383 c-3.5360000133514404,5.289000034332275 -7.50600004196167,10.180000305175781 -12.659000396728516,14.038999557495117 c-2.134999990463257,1.5980000495910645 -4.043000221252441,3.497999906539917 -6.054999828338623,5.260000228881836 c-8.059000015258789,-5.59499979019165 -16.009000778198242,-11.354000091552734 -24.207000732421875,-16.73699951171875 C672.5830078125,90.22699642181396 664.656005859375,85.59400081634521 656.8460083007812,80.78500270843506 z" id="svg_11"/>
		<path opacity="0.7" fill-rule="evenodd" clip-rule="evenodd" d="M67.0469970703125,131.21300411224365 c-5.420000076293945,-4.333000183105469 -11.331000328063965,-8.184000015258789 -16.160999298095703,-13.097000122070312 c-10.980999946594238,-11.17199993133545 -16.851999282836914,-24.67799949645996 -16.386999130249023,-40.63100051879883 c0.6000000238418579,-20.601999282836914 17.979000091552734,-33.96099853515625 38.07699966430664,-29.354000091552734 c17.54400062561035,4.021999835968018 29.702999114990234,14.791999816894531 38.33700180053711,30.089000701904297 c1.0870000123977661,1.9270000457763672 1.8569999933242798,4.034999847412109 2.9800000190734863,5.938000202178955 c0.6880000233650208,1.1670000553131104 1.7680000066757202,2.1040000915527344 2.671999931335449,3.1440000534057617 c-7.215000152587891,5.626999855041504 -14.77400016784668,10.871999740600586 -21.562000274658203,16.974000930786133 C85.38600158691406,112.92299556732178 76.33799743652344,122.20299434661865 67.0469970703125,131.21300411224365 z" id="svg_12"/>
		<path display="none" fill-rule="evenodd" clip-rule="evenodd" fill="#070707" d="M417.0130310058594,487.0230016708374 c-0.6259999871253967,1.3609999418258667 -1.2079999446868896,2.6070001125335693 -1.774999976158142,3.8589999675750732 c-4.238999843597412,9.354999542236328 -12.322999954223633,13.755000114440918 -22.381999969482422,11.920000076293945 c-9.930000305175781,-1.812000036239624 -18.34000015258789,-6.841000080108643 -26.115999221801758,-13.01099967956543 c-2.2079999446868896,-1.7519999742507935 -2.4509999752044678,-4.0370001792907715 -1.0679999589920044,-5.835999965667725 c1.399999976158142,-1.8240000009536743 3.561000108718872,-2.0920000076293945 5.931000232696533,-0.6320000290870667 c4.445000171661377,2.7360000610351562 8.708000183105469,5.821000099182129 13.34000015258789,8.182999610900879 c3.184999942779541,1.6230000257492065 6.798999786376953,2.688999891281128 10.342000007629395,3.259999990463257 c5.798999786376953,0.9330000281333923 9.770999908447266,-1.4539999961853027 12.25,-6.791999816894531 c0.8600000143051147,-1.8530000448226929 1.4769999980926514,-3.8540000915527344 1.937000036239624,-5.849999904632568 c2.0209999084472656,-8.762999534606934 0.9800000190734863,-17.634000778198242 1.1740000247955322,-26.719999313354492 c-1.6670000553131104,-0.3959999978542328 -3.0239999294281006,-0.7260000109672546 -4.386000156402588,-1.0410000085830688 c-5.322000026702881,-1.2289999723434448 -10.215999603271484,-3.3489999771118164 -14.484999656677246,-6.828999996185303 c-11.42300033569336,-9.310999870300293 -11.718999862670898,-24.333999633789062 -0.2980000078678131,-33.597999572753906 c10.253999710083008,-8.315999984741211 22.066999435424805,-9.692000389099121 34.59400177001953,-6.428999900817871 c4.830999851226807,1.2589999437332153 9.128999710083008,3.5989999771118164 12.887999534606934,6.876999855041504 c10.359999656677246,9.036999702453613 10.333999633789062,23.395000457763672 -0.020999999716877937,32.422000885009766 c-4.5320000648498535,3.9519999027252197 -9.82699966430664,6.309000015258789 -15.645999908447266,7.604000091552734 c-1.3639999628067017,0.30300000309944153 -2.7219998836517334,0.6349999904632568 -4.203999996185303,0.9819999933242798 c-0.3089999854564667,7.281000137329102 -0.07400000095367432,14.227999687194824 2.1500000953674316,20.927000045776367 c2.687999963760376,8.097999572753906 7.9670000076293945,10.866999626159668 16.26099967956543,8.814000129699707 c6.742000102996826,-1.6679999828338623 12.552000045776367,-5.190999984741211 18.1560001373291,-9.121999740600586 c1.0369999408721924,-0.7279999852180481 1.9880000352859497,-1.6069999933242798 3.0959999561309814,-2.194999933242798 c2.132999897003174,-1.1319999694824219 4.421000003814697,-0.6499999761581421 5.46999979019165,1.1299999952316284 c1.0839999914169312,1.8389999866485596 0.8880000114440918,3.631999969482422 -0.6110000014305115,5.216000080108643 c-0.21699999272823334,0.2290000021457672 -0.47200000286102295,0.4230000078678131 -0.7210000157356262,0.6190000176429749 c-7.051000118255615,5.517000198364258 -14.602999687194824,10.180000305175781 -23.38800048828125,12.286999702453613 c-7.793000221252441,1.8700000047683716 -15.16100025177002,1.1770000457763672 -21.04599952697754,-5.164999961853027 C418.1620178222656,487.5909948348999 417.6990051269531,487.4349889755249 417.0130310058594,487.0230016708374 z" id="svg_13"/>
		<path fill-rule="evenodd" clip-rule="evenodd" fill="#FFFFFF" d="M139.0780029296875,380.9070043563843 c0.29600000381469727,-10.902999877929688 9.088000297546387,-19.099000930786133 20.211999893188477,-18.841999053955078 c10.645999908447266,0.2460000067949295 19.058000564575195,9.055000305175781 18.864999771118164,19.756000518798828 c-0.19300000369548798,10.78600025177002 -9.364999771118164,19.5939998626709 -20.02199935913086,19.229000091552734 C147.17300415039062,400.675009727478 138.78199768066406,391.8040075302124 139.0780029296875,380.9070043563843 z" id="svg_14"/>
		<path fill-rule="evenodd" clip-rule="evenodd" fill="#FFFFFF" d="M687.6510009765625,381.8359899520874 c-0.11400000005960464,10.873000144958496 -9.055999755859375,19.48699951171875 -19.941999435424805,19.21500015258789 c-10.565999984741211,-0.2639999985694885 -19.177000045776367,-9.109999656677246 -19.155000686645508,-19.677000045776367 c0.023000000044703484,-10.78600025177002 8.868000030517578,-19.399999618530273 19.843000411987305,-19.325000762939453 C679.375,362.123984336853 687.7680053710938,370.748984336853 687.6510009765625,381.8359899520874 z" id="svg_15"/>
	</g>
</g><path d="M427.55157470703125,445.7320556640625 c0.1340000033378601,-0.08100000023841858 -9.276000022888184,-2.618000030517578 -14.680000305175781,-7.388000011444092 c-6.797999858856201,-9.182000160217285 0.5839999914169312,-18.531999588012695 3.257999897003174,-19.558000564575195 c9.539999961853027,-3.6570000648498535 15.329000473022461,7.179999828338623 5.882999897003174,11.607999801635742 c-10.82699966430664,5.076000213623047 3.88100004196167,10.135000228881836 6.28000020980835,9.619000434875488 c3.2980000972747803,0.11900000274181366 6.692999839782715,-1.8309999704360962 7.885000228881836,-4.890999794006348 c0.9710000157356262,-2.489000082015991 1.4529999494552612,-5.11299991607666 1.3949999809265137,-7.751999855041504 c-0.08100000023841858,-3.571000099182129 -1.9079999923706055,-6.7779998779296875 -3.3529999256134033,-10.496000289916992 c-2.746999979019165,-7.067999839782715 -9.8100004196167,-9.840999603271484 -16.788999557495117,-11.85200023651123 c-11.024999618530273,-3.177000045776367 -20.732999801635742,-0.37299999594688416 -31.538999557495117,3.614000082015991 c-10.0649995803833,3.7130000591278076 -12.151000022888184,10.812000274658203 -11.934000015258789,19.81100082397461 c0.1940000057220459,8.065999984741211 4.2210001945495605,13.557999610900879 11.210000038146973,16.983999252319336 c2.48799991607666,1.2200000286102295 4.144999980926514,2.2109999656677246 7.396999835968018,2.9509999752044678 c3.6689999103546143,1.25600004196167 6.572999954223633,2.2070000171661377 10.71500015258789,3.305000066757202 c6.553999900817871,1.7359999418258667 13.303000450134277,3.438999891281128 18.635000228881836,6.485000133514404 c11.109999656677246,6.3480000495910645 16.989999771118164,9.79699993133545 16.989999771118164,15.006999969482422 c0,7.97599983215332 -14.866000175476074,15.67300033569336 -32.691001892089844,14.692000389099121 c-7.315999984741211,-0.40299999713897705 -15.00100040435791,-0.8199999928474426 -22.756000518798828,-2.359999895095825 c-7.085000038146973,-1.4079999923706055 -13.437000274658203,-4.002999782562256 -21.19700050354004,-7.880000114440918 c-10.493000030517578,-1.9079999923706055 -6.204999923706055,7.63100004196167 -6.204999923706055,7.63100004196167 c4.739999771118164,4.281000137329102 9.45199966430664,8.092000007629395 14.710000038146973,9.895999908447266 c14.236000061035156,4.888999938964844 26.267000198364258,7.053999900817871 37.09600067138672,7.0970001220703125 c13.819999694824219,0.05299999937415123 24.086000442504883,0 33.52399826049805,-7.15500020980835 c9.78499984741211,-7.419000148773193 16.333999633789062,-14.352999687194824 14.902999877929688,-23.034000396728516 C453.94354248046875,457.83709716796875 446.7645263671875,451.5760498046875 427.55157470703125,445.7320556640625 z" id="svg_16" class="selected"/></g></svg>