<?xml version="1.0" encoding="utf-8"?>
<!-- Generator: Adobe Illustrator 16.0.2, SVG Export Plug-In . SVG Version: 6.00 Build 0)  -->
<!DOCTYPE svg PUBLIC "-//W3C//DTD SVG 1.1//EN" "http://www.w3.org/Graphics/SVG/1.1/DTD/svg11.dtd">
<svg version="1.1" id="Layer_1" xmlns="http://www.w3.org/2000/svg" xmlns:xlink="http://www.w3.org/1999/xlink" x="0px" y="0px"
	 width="150px" height="150px" viewBox="0 0 150 150" enable-background="new 0 0 150 150" xml:space="preserve">
<g>
	<path fill="#FFFFFF" d="M98.07,106.406c0-2.988-0.338-5.625-1.01-7.91c-0.674-2.285-1.92-4.379-3.736-6.283
		s-4.277-3.691-7.383-5.361s-7.119-3.385-12.041-5.143c-5.273-1.814-10.05-3.881-14.326-6.196
		c-4.278-2.314-7.925-4.979-10.942-7.998c-3.019-3.017-5.348-6.46-6.987-10.327c-1.641-3.867-2.461-8.291-2.461-13.271
		c0-4.979,0.864-9.594,2.593-13.843c1.728-4.248,4.188-7.939,7.383-11.074c3.193-3.134,7.06-5.581,11.602-7.339
		c4.54-1.758,9.594-2.637,15.161-2.637c6.21,0,11.703,1.085,16.48,3.252c4.775,2.168,8.789,5.04,12.041,8.613
		c3.252,3.575,5.697,7.706,7.338,12.393c1.641,4.688,2.461,9.522,2.461,14.502H98.07c0-3.573-0.426-6.884-1.273-9.932
		c-0.85-3.046-2.184-5.683-4-7.91c-1.816-2.226-4.117-3.955-6.898-5.186c-2.784-1.23-6.109-1.846-9.976-1.846
		c-3.575,0-6.651,0.527-9.229,1.582c-2.579,1.055-4.702,2.505-6.372,4.351s-2.9,4.029-3.691,6.548
		c-0.791,2.52-1.187,5.273-1.187,8.262c0,5.392,1.934,9.903,5.801,13.535c3.867,3.634,9.844,6.886,17.929,9.756
		c6.211,2.052,11.543,4.322,15.996,6.812c4.453,2.491,8.1,5.317,10.943,8.481c2.842,3.164,4.922,6.711,6.24,10.635
		c1.318,3.927,1.977,8.381,1.977,13.359c0,5.217-0.879,9.932-2.637,14.15s-4.262,7.822-7.514,10.811s-7.193,5.289-11.822,6.9
		c-4.629,1.61-9.844,2.416-15.645,2.416c-5.04,0-10.005-0.82-14.897-2.461c-4.893-1.639-9.259-4.086-13.096-7.338
		c-3.838-3.252-6.943-7.309-9.316-12.174c-2.373-4.862-3.56-10.487-3.56-16.875h16.172c0,4.395,0.644,8.16,1.934,11.295
		c1.288,3.135,3.061,5.728,5.317,7.777c2.255,2.053,4.878,3.561,7.866,4.527s6.181,1.449,9.58,1.449
		c7.09,0,12.422-1.814,15.996-5.449C96.283,117.628,98.07,112.678,98.07,106.406z"/>
</g>
</svg>
